<svg width="900" height="450" viewBox="0 0 900 450" fill="none" xmlns="http://www.w3.org/2000/svg">
    <mask id="path-1-inside-1_48_339" fill="white">
    <path d="M900 450C900 390.905 888.36 332.389 865.746 277.792C843.131 223.196 809.984 173.588 768.198 131.802C726.412 90.0156 676.804 56.8688 622.208 34.2542C567.611 11.6396 509.095 -2.58312e-06 450 0C390.905 2.58312e-06 332.389 11.6396 277.792 34.2542C223.196 56.8688 173.588 90.0156 131.802 131.802C90.0156 173.588 56.8688 223.196 34.2542 277.792C11.6396 332.389 -5.16623e-06 390.905 0 450L450 450H900Z"/>
    </mask>
    <path d="M900 450C900 390.905 888.36 332.389 865.746 277.792C843.131 223.196 809.984 173.588 768.198 131.802C726.412 90.0156 676.804 56.8688 622.208 34.2542C567.611 11.6396 509.095 -2.58312e-06 450 0C390.905 2.58312e-06 332.389 11.6396 277.792 34.2542C223.196 56.8688 173.588 90.0156 131.802 131.802C90.0156 173.588 56.8688 223.196 34.2542 277.792C11.6396 332.389 -5.16623e-06 390.905 0 450L450 450H900Z" stroke="url(#paint0_linear_48_339)" stroke-width="2" mask="url(#path-1-inside-1_48_339)"/>
    <defs>
    <linearGradient id="paint0_linear_48_339" x1="450" y1="0" x2="450" y2="900" gradientUnits="userSpaceOnUse">
    <stop stop-color="white"/>
    <stop offset="0.195" stop-color="white" stop-opacity="0"/>
    </linearGradient>
    </defs>
    </svg>
    