<svg width="211" height="211" viewBox="0 0 211 211" fill="none" xmlns="http://www.w3.org/2000/svg">
    <rect x="0.770508" width="209.458" height="210.512" rx="6" fill="url(#paint0_linear_316_94)"/>
    <path d="M144.574 105.199H133.406V150.516H144.571V105.199H144.574ZM88.7539 156.178H66.4251V167.512H88.7539V156.178ZM55.2622 99.5906H66.4251V88.2628H55.2622V99.5906ZM88.7539 99.5906H111.083V88.2628H88.7539V99.5906ZM111.083 105.199V139.188H99.914V105.199H66.4223V139.188H44.0992C37.9317 139.188 32.9335 134.114 32.9335 127.858C32.9335 121.604 37.9317 116.527 44.0992 116.527H55.2622V105.199H44.0992C31.7669 105.199 21.7705 115.341 21.7705 127.858C21.7705 140.371 31.7669 150.516 44.0992 150.516H77.5909V116.527H88.7539V150.516H122.246V105.199H111.083ZM166.866 72.7045H155.666C154.957 81.4232 147.767 88.277 138.991 88.277C129.744 88.277 122.246 80.6676 122.246 71.2811C122.246 62.3757 129.001 55.0833 137.595 54.3589V43C122.83 43.7358 111.083 56.119 111.083 71.284C111.083 86.93 123.577 99.6076 138.991 99.6076C153.938 99.6076 166.142 87.6856 166.866 72.7045ZM189.229 127.858C189.229 115.341 179.233 105.199 166.9 105.199H155.737V116.527H166.9C173.068 116.527 178.066 121.601 178.066 127.858C178.066 134.114 173.068 139.188 166.9 139.188H155.737V150.516H166.9C179.233 150.516 189.229 140.371 189.229 127.858Z" fill="#005B31"/>
    <path d="M140.979 51.0706V53.7674C144.782 54.0853 148.35 55.7363 151.048 58.4275C153.747 61.1187 155.402 64.676 155.721 68.4683H158.425C158.101 63.9615 156.159 59.7221 152.955 56.5268C149.751 53.3316 145.499 51.3945 140.979 51.0706ZM140.979 47.0353V49.7265C145.857 50.0514 150.451 52.1303 153.908 55.5772C157.365 59.024 159.451 63.6046 159.776 68.4683H162.476C162.146 62.8913 159.775 57.6289 155.813 53.6786C151.85 49.7282 146.572 47.3644 140.979 47.0353ZM166.523 68.4683C166.189 61.8215 163.39 55.5354 158.67 50.8295C153.95 46.1235 147.645 43.3333 140.979 43V45.6883C146.931 46.0182 152.552 48.5241 156.767 52.7268C160.982 56.9295 163.496 62.534 163.827 68.4683H166.523Z" fill="#F18700"/>
    <defs>
    <linearGradient id="paint0_linear_316_94" x1="210.229" y1="0" x2="-0.280113" y2="209.456" gradientUnits="userSpaceOnUse">
    <stop stop-color="#FFA93C"/>
    <stop offset="0.491184" stop-color="#B3F5CD"/>
    <stop offset="0.98" stop-color="#B3F5CD"/>
    </linearGradient>
    </defs>
    </svg>
    